<?xml version="1.0" encoding="utf-8"?>
<!-- Generator: Adobe Illustrator 25.2.3, SVG Export Plug-In . SVG Version: 6.00 Build 0)  -->
<svg version="1.1" id="圖層_1" xmlns="http://www.w3.org/2000/svg" xmlns:xlink="http://www.w3.org/1999/xlink" x="0px" y="0px"
	 viewBox="0 0 500 500" style="enable-background:new 0 0 500 500;" xml:space="preserve">
<style type="text/css">
	.st0{fill:#FFFFFF;}
</style>
<path class="st0" d="M216.3,170.6c21.4,52.3,111.6,30,82.9-33.1c-1.4-3-1.7-6.5-0.7-9.7c2.7-8,11.2-7.2,17.8-5.3
	c20.7,5.9,95.1,23.5,87.4,50.9c-3.6,12.8-9.6,26.1-14.3,38.6c-5.2,13.6-18.7,35.2-17.2,49.6c2,19.4,13,11,25.7,5.4
	c20.7-9.1,33.2-4.9,44,13.8c20.1,34.6-7.7,84.8-49.8,77.1c-9.4-1.7-21.8-6.5-30.3-13.2c-4.8-3.9-11.4-4.4-16.8-1.4
	c-0.6,0.4-1.2,0.8-1.7,1.2c-9.1,8.7-13.3,36-17.2,47.2c-3.3,9.4-5.4,21.6-10.4,30.1c-10.4,17.7-245-72.7-253.8-76.7
	c-20.4-9.3-5.7-28.1,0.7-45.4c10.1-27.1,77.8-223,90.2-224.1c12.9-1.1,89,21.5,92.6,24.3c19.4,15.3-10.3,24.8-18.8,32.5
	C213.3,144.9,211.4,158.7,216.3,170.6z"/>
</svg>
