<?xml version="1.0" encoding="utf-8"?>
<!-- Generator: Adobe Illustrator 25.2.3, SVG Export Plug-In . SVG Version: 6.00 Build 0)  -->
<svg version="1.1" id="圖層_1" xmlns="http://www.w3.org/2000/svg" xmlns:xlink="http://www.w3.org/1999/xlink" x="0px" y="0px"
	 viewBox="0 0 500 500" style="enable-background:new 0 0 500 500;" xml:space="preserve">
<style type="text/css">
	.st0{fill:#FFFFFF;}
</style>
<g>
	<path class="st0" d="M403.1,117c-6.1-14.5-20.3-23.9-36-23.9h-33.7v-5.8h-48.9c0.2-1.6,0.3-3.2,0.3-4.9
		c-0.3-19.3-16.3-34.6-35.5-34.3c-18.8,0.3-33.9,15.5-34.3,34.3c0,1.6,0.1,3.2,0.3,4.8h-48.9V93H133c-21.6,0-39.1,17.5-39.1,39.1
		v280.4c0,21.6,17.5,39.1,39.1,39.2l0,0h234c21.6,0,39.1-17.5,39.1-39.1l0,0V132.3C406.1,127,405.1,121.8,403.1,117z M250,69.5
		c7.2,0,12.9,5.8,13,13c0,1.7-0.3,3.3-1,4.9h-24c-2.7-6.6,0.5-14.2,7.1-16.8C246.6,69.8,248.3,69.5,250,69.5z M382.9,412.6
		c0,2.1-0.4,4.2-1.2,6.1c-1.2,2.8-3.2,5.3-5.7,7c-2.6,1.8-5.7,2.7-8.9,2.7H133c-2.1,0-4.2-0.4-6.2-1.2c-2.8-1.2-5.3-3.2-7-5.8
		c-1.8-2.6-2.8-5.6-2.8-8.8V132.3c0-2.1,0.4-4.2,1.2-6.2c1.2-2.8,3.2-5.3,5.7-7c2.6-1.8,5.7-2.7,8.9-2.7h33.7v4.9
		c0,9.1,7.4,16.5,16.5,16.5l0,0h133.8c9.1,0,16.5-7.4,16.5-16.5l0,0v-4.9H367c2.1,0,4.2,0.4,6.2,1.2c5.9,2.4,9.7,8.2,9.7,14.6
		L382.9,412.6L382.9,412.6z"/>
	<rect x="165.7" y="184.3" class="st0" width="168.7" height="19.4"/>
	<rect x="165.7" y="237.6" class="st0" width="168.7" height="19.4"/>
	<rect x="165.7" y="290.9" class="st0" width="168.7" height="19.4"/>
	<rect x="250" y="358.7" class="st0" width="84.3" height="19.4"/>
</g>
</svg>
