<?xml version="1.0" encoding="utf-8"?>
<!-- Generator: Adobe Illustrator 25.2.3, SVG Export Plug-In . SVG Version: 6.00 Build 0)  -->
<svg version="1.1" id="圖層_1" xmlns="http://www.w3.org/2000/svg" xmlns:xlink="http://www.w3.org/1999/xlink" x="0px" y="0px"
	 viewBox="0 0 500 500" style="enable-background:new 0 0 500 500;" xml:space="preserve">
<style type="text/css">
	.st0{fill:#FFFFFF;}
</style>
<g>
	<path class="st0" d="M185.3,111c26.6,6.7,48.6,6.9,62.4,26c0,0,5.2-19.1,8.7-27.8c0,0-31.1-60.9-74.6-59
		C143.7,52,143.7,100.6,185.3,111z"/>
	<path class="st0" d="M159.3,228.6c11.6-2.2,23.4-3.3,35.2-3.2h98.7c22.7,0,41.1,18.4,41.1,41.1c0,4.3-0.7,8.6-2,12.7
		c12.5-8.3,25.6-17.1,36.6-24.6c-10.4-58.2-46-88.1-104.4-90.5c0.9-16.6,3.8-32.5,11-35.8c22.6-10.4,64.2-8.7,91.9-33
		S350,29.4,294.5,71c-30.7,23-40.6,62.4-43.5,93C192,166.7,166.4,207.7,159.3,228.6z"/>
	<path class="st0" d="M444.2,249.1c-9.7-10.6-27.9-8.3-40,0.6c-11.1,9.2-86.8,59-86.8,59h-92.1l-0.3,0.1c-4.9-0.1-8.7-4.1-8.6-9
		c0.1-4.9,4.1-8.7,9-8.6c0.1,0,0.1,0,0.2,0l-0.3-0.2h67.8c13.6,0,24.7-11,24.7-24.7c0-13.6-11-24.7-24.7-24.7l0,0h-98.7
		c-61.7,0-81.2,25.7-102.8,47.3l-39.2,34.2c-2.6,2.2-4,5.4-4,8.8v113.7c0,2.2,1.8,3.9,3.9,3.9c0.9,0,1.8-0.3,2.5-0.9l75.7-64.9
		c2.7-2.3,6.2-3.2,9.7-2.6l118,21.4c8.2,1.5,16.8-0.4,23.6-5.2c0,0,150.5-104.7,161.7-114C454.1,273.8,454,259.7,444.2,249.1z"/>
</g>
</svg>
