<?xml version="1.0" encoding="utf-8"?>
<!-- Generator: Adobe Illustrator 25.2.3, SVG Export Plug-In . SVG Version: 6.00 Build 0)  -->
<svg version="1.1" id="圖層_1" xmlns="http://www.w3.org/2000/svg" xmlns:xlink="http://www.w3.org/1999/xlink" x="0px" y="0px"
	 viewBox="0 0 500 500" style="enable-background:new 0 0 500 500;" xml:space="preserve">
<style type="text/css">
	.st0{fill:#FFFFFF;}
</style>
<path class="st0" d="M105.1,399.4l255.2,0.2c61.7,1.4,112.8-47.5,114.2-109.2c1.3-59.1-43.7-109.1-102.6-113.9l1.3-0.3
	c-22.2-45.5-68-74.8-118.6-75.9c-138.4-3.1-146,124.7-146,124.7c-54,3.7-79.7,38.8-82.8,85.6S55.7,398.3,105.1,399.4z M242.9,339.7
	c-39.4,12-81-10.2-93-49.5c-9.5-31.1,2.3-64.7,29-83.1l-6.3-7.2c-1.2-1.4-1.1-3.6,0.4-4.8c0.6-0.5,1.3-0.8,2.1-0.8l56.8-2.7
	c1.9-0.1,3.5,1.4,3.6,3.2c0,0.3,0,0.6-0.1,0.8l-10.7,54.2c-0.3,1.8-2.1,3.1-4,2.7c-0.8-0.1-1.5-0.6-2-1.2l-10.2-11.9
	c-8.8,5-15.6,12.9-19.2,22.3c-4.2,10.7-4.7,22.5-1.5,33.5c0.2,0.1,0.4,0.3,0.6,0.4c0.7,0.5,1.5,0.9,2.3,1.2c2.3,1,4.6,1.9,7,2.6
	c6,1.8,12.2,2.8,18.5,3c3.8,0.2,7.5-0.2,11.1-1.2c0.3-0.1,0.6-0.2,0.8-0.3c1.7-0.6,3.6,0.3,4.3,2l12.6,32.3c0.3,0.9,0.3,1.9-0.1,2.7
	C244.6,338.7,243.9,339.4,242.9,339.7z M325.9,361l-56.8,2.7c-1,0.1-2.1-0.4-2.8-1.2c-0.7-0.8-1-1.9-0.8-2.9l10.7-54.2
	c0.4-1.9,2.1-3.1,4-2.7c0.8,0.1,1.5,0.6,2,1.1l10.2,11.9c8.8-5,15.6-12.9,19.2-22.3c4.2-10.7,4.7-22.5,1.5-33.5
	c-0.2-0.1-0.4-0.3-0.6-0.4c-0.7-0.5-1.5-0.9-2.3-1.2c-2.3-1-4.6-1.9-7-2.6c-6-1.8-12.2-2.8-18.5-3c-3.8-0.2-7.5,0.2-11.2,1.2
	c-0.3,0.1-0.5,0.2-0.8,0.3c-1.7,0.6-3.6-0.3-4.3-2l-12.6-32.3c-0.3-0.9-0.3-1.9,0.1-2.7c0.4-0.9,1.2-1.5,2.1-1.8
	c39.4-11.8,80.9,10.5,92.8,50c9.3,30.8-2.4,64.1-28.8,82.5l6.3,7.2c1.2,1.4,1.1,3.6-0.4,4.8C327.4,360.7,326.7,361,325.9,361
	L325.9,361z"/>
</svg>
