<svg xmlns="http://www.w3.org/2000/svg" viewBox="0 0 364 364"><defs><style>.cls-1{fill:#7b9b48;}.cls-2{font-size:38.12px;font-family:LiGothicMed, Apple LiGothic;}.cls-2,.cls-3{fill:#fff;}</style></defs><g id="圖層_2" data-name="圖層 2"><g id="圖層_1-2" data-name="圖層 1"><circle class="cls-1" cx="182" cy="182" r="182"/><text class="cls-2" transform="translate(105.77 291.04)">專屬模型</text><path class="cls-3" d="M166.87,115c9.6,23.47,50.08,13.46,37.2-14.85a6.06,6.06,0,0,1-.32-4.35c1.21-3.59,5-3.24,8-2.38C221,96.06,254.41,104,251,116.26c-1.62,5.74-4.31,11.71-6.42,17.32-2.33,6.1-8.39,15.79-7.72,22.25.9,8.71,5.84,4.94,11.54,2.43,9.28-4.09,14.89-2.2,19.74,6.19,9,15.52-3.46,38.05-22.35,34.6a33.45,33.45,0,0,1-13.59-5.93,6.74,6.74,0,0,0-7.54-.63c-.27.18-.54.36-.76.54-4.09,3.91-6,16.16-7.72,21.18-1.48,4.22-2.43,9.69-4.67,13.51-4.67,7.94-109.93-32.62-113.88-34.42-9.16-4.17-2.56-12.61.31-20.37,4.53-12.16,34.91-100.06,40.47-100.56,5.79-.49,39.94,9.65,41.56,10.91,8.7,6.86-4.63,11.12-8.44,14.58C165.52,103.47,164.67,109.66,166.87,115Z"/></g></g></svg>