<svg xmlns="http://www.w3.org/2000/svg" viewBox="0 0 364 364"><defs><style>.cls-1{fill:#7b9b48;}.cls-2{font-size:38.12px;font-family:LiGothicMed, Apple LiGothic;}.cls-2,.cls-3{fill:#fff;}</style></defs><g id="圖層_2" data-name="圖層 2"><g id="圖層_1-2" data-name="圖層 1"><circle class="cls-1" cx="182" cy="182" r="182"/><text class="cls-2" transform="translate(105.77 291.04)">數據分析</text><path class="cls-3" d="M251.15,82.86A17.53,17.53,0,0,0,235,72.13H219.87v-2.6H197.93a17.43,17.43,0,0,0,.14-2.2,15.66,15.66,0,0,0-31.32,0,17.39,17.39,0,0,0,.13,2.16H144.94v2.6H130a17.54,17.54,0,0,0-17.54,17.54V215.46A17.6,17.6,0,0,0,130,233H235A17.54,17.54,0,0,0,252.5,215.5h0V89.72A17.78,17.78,0,0,0,251.15,82.86Zm-68.7-21.31a5.84,5.84,0,0,1,5.83,5.83,5.44,5.44,0,0,1-.44,2.2H177.07A5.77,5.77,0,0,1,180.25,62,4.66,4.66,0,0,1,182.45,61.55Zm59.64,154a7.12,7.12,0,0,1-.54,2.74,7.35,7.35,0,0,1-2.56,3.14,7,7,0,0,1-4,1.21H130a7.47,7.47,0,0,1-2.78-.54,7,7,0,0,1-3.14-2.6,6.87,6.87,0,0,1-1.26-3.95V89.72a7.47,7.47,0,0,1,.54-2.78,7.35,7.35,0,0,1,2.56-3.14,7,7,0,0,1,4-1.21H145v2.2a7.41,7.41,0,0,0,7.41,7.4h60a7.41,7.41,0,0,0,7.4-7.4h0v-2.2H235a7.43,7.43,0,0,1,2.78.54,7.05,7.05,0,0,1,4.36,6.55V215.5Z"/><rect class="cls-3" x="144.62" y="113.06" width="75.7" height="8.71"/><rect class="cls-3" x="144.62" y="136.97" width="75.7" height="8.71"/><rect class="cls-3" x="144.62" y="160.89" width="75.7" height="8.71"/><rect class="cls-3" x="182.45" y="191.31" width="37.83" height="8.71"/></g></g></svg>