<svg xmlns="http://www.w3.org/2000/svg" viewBox="0 0 364 364"><defs><style>.cls-1{fill:#7b9b48;}.cls-2,.cls-3{fill:#fff;}.cls-3{font-size:38.12px;font-family:LiGothicMed, Apple LiGothic;}</style></defs><g id="圖層_2" data-name="圖層 2"><g id="圖層_1-2" data-name="圖層 1"><circle class="cls-1" cx="182" cy="182" r="182"/><path class="cls-2" d="M153,83.66c11.94,3,21.81,3.1,28,11.67,0,0,2.33-8.57,3.9-12.47,0,0-13.95-27.33-33.47-26.48C134.32,57.19,134.32,79,153,83.66Z"/><path class="cls-2" d="M141.32,136.43a81.34,81.34,0,0,1,15.8-1.43h44.29a18.44,18.44,0,0,1,18.44,18.44,19,19,0,0,1-.9,5.7c5.61-3.73,11.49-7.67,16.42-11-4.66-26.12-20.64-39.53-46.84-40.61.4-7.45,1.7-14.58,4.93-16.06,10.15-4.67,28.81-3.91,41.24-14.81S226.89,47.05,202,65.72c-13.78,10.32-18.22,28-19.52,41.73C156,108.66,144.51,127.06,141.32,136.43Z"/><path class="cls-2" d="M269.16,145.63c-4.35-4.75-12.52-3.72-18,.27-5,4.13-38.94,26.48-38.94,26.48H170.94l-.14,0a4,4,0,0,1,.18-7.9h.09l-.13-.09h30.42a11.08,11.08,0,1,0,0-22.16H157.07c-27.68,0-36.43,11.53-46.12,21.22L93.36,178.84a5.1,5.1,0,0,0-1.8,3.95v51a1.75,1.75,0,0,0,1.75,1.75,1.71,1.71,0,0,0,1.12-.4l34-29.12a5.27,5.27,0,0,1,4.35-1.17l52.95,9.61a14.07,14.07,0,0,0,10.59-2.34s67.53-47,72.56-51.15C273.61,156.72,273.56,150.39,269.16,145.63Z"/><text class="cls-3" transform="translate(105.77 291.04)">環境監測</text></g></g></svg>