<svg xmlns="http://www.w3.org/2000/svg" viewBox="0 0 364 364"><defs><style>.cls-1{fill:#7b9b48;}.cls-2{font-size:38.12px;font-family:LiGothicMed, Apple LiGothic;}.cls-2,.cls-3{fill:#fff;}</style></defs><g id="圖層_2" data-name="圖層 2"><g id="圖層_1-2" data-name="圖層 1"><circle class="cls-1" cx="182" cy="182" r="182"/><text class="cls-2" transform="translate(86.71 291.04)">自動化控制</text><path class="cls-3" d="M117,206l114.52.09A50.14,50.14,0,0,0,236.67,106l.58-.13A60.68,60.68,0,0,0,184,71.83c-62.11-1.39-65.52,56-65.52,56-24.23,1.66-35.76,17.41-37.15,38.41S94.79,205.55,117,206Zm61.84-26.79a33.43,33.43,0,0,1-28.72-59.5l-2.83-3.23a1.51,1.51,0,0,1,.18-2.15,1.41,1.41,0,0,1,.94-.36l25.49-1.21a1.55,1.55,0,0,1,1.62,1.43.79.79,0,0,1-.05.36l-4.8,24.32a1.51,1.51,0,0,1-1.8,1.21,1.42,1.42,0,0,1-.89-.54l-4.58-5.34a19.64,19.64,0,0,0-8.62,10,23.4,23.4,0,0,0-.67,15c.09.05.18.14.27.18a4.05,4.05,0,0,0,1,.54,27.59,27.59,0,0,0,3.14,1.17,32.42,32.42,0,0,0,8.31,1.34,15.71,15.71,0,0,0,5-.53,2.53,2.53,0,0,0,.35-.14,1.55,1.55,0,0,1,1.93.9l5.66,14.49a1.63,1.63,0,0,1,0,1.21A1.34,1.34,0,0,1,178.79,179.25ZM216,188.81,190.54,190a1.57,1.57,0,0,1-1.61-1.84l4.8-24.32a1.5,1.5,0,0,1,1.79-1.21,1.6,1.6,0,0,1,.9.49l4.58,5.34a19.55,19.55,0,0,0,8.61-10,23.36,23.36,0,0,0,.68-15c-.09,0-.18-.13-.27-.18a4.64,4.64,0,0,0-1-.53,25.21,25.21,0,0,0-3.14-1.17,32.29,32.29,0,0,0-8.3-1.35,15.8,15.8,0,0,0-5,.54l-.36.14a1.55,1.55,0,0,1-1.93-.9l-5.66-14.5a1.63,1.63,0,0,1,.05-1.21,1.52,1.52,0,0,1,.94-.8,33.43,33.43,0,0,1,28.72,59.45l2.83,3.23a1.53,1.53,0,0,1-.18,2.16,1,1,0,0,1-.9.49Z"/></g></g></svg>